<svg width="80" height="80" viewBox="0 0 80 80" fill="none" xmlns="http://www.w3.org/2000/svg">
<circle cx="39.998" cy="40" r="40" fill="#FFE3DE"/>
<path opacity="0.3" fill-rule="evenodd" clip-rule="evenodd" d="M25.0441 54.8179H54.4101C55.8411 54.8179 57.0011 53.6579 57.0011 52.2269V33.2269C57.0011 31.7959 55.8411 30.6359 54.4101 30.6359H36.2721L31.8531 26.2109C31.3663 25.724 30.7057 25.4509 30.0171 25.4519H25.0441C23.6132 25.4519 22.4531 26.6119 22.4531 28.0429V52.2259C22.4528 52.913 22.7256 53.5723 23.2115 54.0585C23.6974 54.5447 24.3565 54.8178 25.0439 54.8179H25.0441Z" fill="#FF715B"/>
<path opacity="0.3" fill-rule="evenodd" clip-rule="evenodd" d="M25.9082 51.3629L36.2722 37.5439L46.6372 51.3629H25.9082Z" fill="#FF715B"/>
<path fill-rule="evenodd" clip-rule="evenodd" d="M37.999 51.3631L44.909 42.7261L51.819 51.3631L37.999 51.3631Z" fill="#FF715B"/>
<path opacity="0.3" fill-rule="evenodd" clip-rule="evenodd" d="M50.091 39.2709C51.522 39.2709 52.682 38.1108 52.682 36.6799C52.682 35.2489 51.522 34.0889 50.091 34.0889C48.66 34.0889 47.5 35.2489 47.5 36.6799C47.5 38.1108 48.66 39.2709 50.091 39.2709V39.2709Z" fill="#FF715B"/>
</svg>
