<svg width="80" height="80" viewBox="0 0 80 80" fill="none" xmlns="http://www.w3.org/2000/svg">
<circle cx="39.998" cy="40" r="40" fill="#EAFAF3"/>
<path fill-rule="evenodd" clip-rule="evenodd" d="M19.312 52.2869L31.371 27.2629L43.432 52.2869H40.014L36.947 45.8049H25.794L22.732 52.2869H19.312ZM31.371 34.0229L27.189 42.8769H35.553L31.371 34.0229Z" fill="#2DCA8C"/>
<path opacity="0.3" fill-rule="evenodd" clip-rule="evenodd" d="M56.1852 52.287V50.542C54.655 51.8833 52.6786 52.6041 50.6442 52.563C48.2576 52.6004 45.9592 51.6616 44.2814 49.9639C42.6035 48.2662 41.6917 45.957 41.7572 43.571C41.6926 41.1857 42.6046 38.8774 44.2821 37.1804C45.9597 35.4834 48.2573 34.5449 50.6432 34.582C52.6777 34.5409 54.654 35.2617 56.1842 36.603V34.861H59.1842V52.287H56.1852ZM50.7132 49.742C52.9053 49.8225 54.9803 48.752 56.1852 46.919V40.228C54.9803 38.395 52.9053 37.3245 50.7132 37.405C49.1065 37.4093 47.5716 38.0711 46.4655 39.2365C45.3595 40.4019 44.7787 41.9693 44.8582 43.574C44.7789 45.1785 45.3599 46.7456 46.4659 47.9108C47.5719 49.076 49.1067 49.7377 50.7132 49.742H50.7132Z" fill="#2DCA8C"/>
</svg>
