<svg width="80" height="80" viewBox="0 0 80 80" fill="none" xmlns="http://www.w3.org/2000/svg">
<circle cx="39.998" cy="40" r="40" fill="#E5F1FF"/>
<path opacity="0.3" fill-rule="evenodd" clip-rule="evenodd" d="M26.681 45.3701L23.208 56.6581L34.496 53.1851L26.681 45.3701Z" fill="#377DFF"/>
<path fill-rule="evenodd" clip-rule="evenodd" d="M40.575 22.793C50.1665 22.793 57.942 30.5684 57.942 40.16C57.942 49.7515 50.1665 57.527 40.575 57.527C30.9835 57.527 23.208 49.7515 23.208 40.16C23.208 30.5684 30.9835 22.793 40.575 22.793H40.575ZM30.446 42.86C33.068 46.793 36.486 48.843 40.575 48.843C44.664 48.843 48.081 46.793 50.708 42.86C51.0646 42.3438 51.1151 41.6754 50.8401 41.1115C50.5652 40.5476 50.0075 40.1758 49.3813 40.1388C48.755 40.1018 48.1574 40.4054 47.818 40.933C45.809 43.947 43.438 45.37 40.58 45.37C37.722 45.37 35.351 43.947 33.342 40.933C33.0026 40.4054 32.405 40.1018 31.7788 40.1388C31.1525 40.1758 30.5948 40.5476 30.3199 41.1115C30.045 41.6754 30.0955 42.3438 30.452 42.86L30.446 42.86Z" fill="#377DFF"/>
</svg>
