<svg width="80" height="80" viewBox="0 0 80 80" fill="none" xmlns="http://www.w3.org/2000/svg">
<circle cx="39.998" cy="40" r="40" fill="#EAFAF3"/>
<path opacity="0.3" fill-rule="evenodd" clip-rule="evenodd" d="M52.569 33.1008C49.9887 33.1008 47.897 31.0091 47.897 28.4288C47.897 25.8486 49.9887 23.7568 52.569 23.7568C55.1493 23.7568 57.241 25.8486 57.241 28.4288C57.241 31.0091 55.1493 33.1008 52.569 33.1008H52.569ZM52.569 57.3938C49.9887 57.3938 47.897 55.3021 47.897 52.7218C47.897 50.1416 49.9887 48.0498 52.569 48.0498C55.1493 48.0498 57.241 50.1416 57.241 52.7218C57.241 55.3021 55.1493 57.3938 52.569 57.3938ZM28.276 57.3938C25.6957 57.3938 23.604 55.3021 23.604 52.7218C23.604 50.1416 25.6957 48.0498 28.276 48.0498C30.8563 48.0498 32.948 50.1416 32.948 52.7218C32.948 55.3021 30.8563 57.3938 28.276 57.3938H28.276Z" fill="#2DCA8C"/>
<path fill-rule="evenodd" clip-rule="evenodd" d="M28.276 33.1008C25.6957 33.1008 23.604 31.0091 23.604 28.4288C23.604 25.8486 25.6957 23.7568 28.276 23.7568C30.8563 23.7568 32.948 25.8486 32.948 28.4288C32.948 31.0091 30.8563 33.1008 28.276 33.1008ZM38.554 25.6258H42.291C43.3061 25.6493 44.1168 26.479 44.1168 27.4943C44.1168 28.5097 43.3061 29.3394 42.291 29.3628H38.554C37.5389 29.3394 36.7282 28.5097 36.7282 27.4943C36.7282 26.479 37.5389 25.6493 38.554 25.6258L38.554 25.6258ZM38.554 51.7878H42.291C43.3061 51.8113 44.1168 52.641 44.1168 53.6563C44.1168 54.6717 43.3061 55.5014 42.291 55.5248H38.554C37.5389 55.5013 36.7282 54.6717 36.7282 53.6563C36.7282 52.641 37.5389 51.8113 38.554 51.7878L38.554 51.7878ZM27.341 36.8378C28.3732 36.8378 29.21 37.6746 29.21 38.7068L29.21 42.4438C29.1865 43.4589 28.3569 44.2696 27.3415 44.2696C26.3261 44.2696 25.4965 43.4589 25.473 42.4438L25.473 38.7068C25.473 37.675 26.3092 36.8384 27.341 36.8378H27.341ZM53.503 36.8378C54.5352 36.8378 55.372 37.6746 55.372 38.7068V42.4438C55.3485 43.4589 54.5189 44.2696 53.5035 44.2696C52.4881 44.2696 51.6585 43.4589 51.635 42.4438V38.7068C51.635 37.6746 52.4718 36.8378 53.504 36.8378H53.503Z" fill="#2DCA8C"/>
</svg>
