<svg width="80" height="80" viewBox="0 0 80 80" fill="none" xmlns="http://www.w3.org/2000/svg">
<circle cx="39.998" cy="40" r="40" fill="#E5F1FF"/>
<path fill-rule="evenodd" clip-rule="evenodd" d="M28.025 25.54H35.317C36.8275 25.54 38.052 26.7645 38.052 28.275V30.098C38.0515 31.6095 36.8266 32.8336 35.3161 32.833L28.025 32.833C26.5145 32.833 25.29 31.6085 25.29 30.098V28.275C25.29 26.7645 26.5145 25.54 28.025 25.54ZM44.432 47.416H51.724C53.2345 47.416 54.459 48.6405 54.459 50.151V51.974C54.459 53.4845 53.2345 54.709 51.724 54.709H44.432C42.9215 54.709 41.697 53.4845 41.697 51.974V50.151C41.697 48.6405 42.9215 47.416 44.432 47.416H44.432Z" fill="#377DFF"/>
<path opacity="0.3" fill-rule="evenodd" clip-rule="evenodd" d="M28.025 36.478H35.317C36.8275 36.478 38.052 37.7025 38.052 39.213V51.974C38.052 53.4845 36.8275 54.709 35.317 54.709H28.025C26.5145 54.709 25.29 53.4845 25.29 51.974V39.213C25.29 37.7025 26.5145 36.478 28.025 36.478L28.025 36.478ZM44.432 25.54H51.724C53.2345 25.54 54.459 26.7645 54.459 28.275V41.04C54.459 42.5505 53.2345 43.775 51.724 43.775H44.432C42.9215 43.775 41.697 42.5505 41.697 41.04V28.275C41.697 26.7645 42.9215 25.54 44.432 25.54H44.432Z" fill="#377DFF"/>
</svg>
