<svg width="80" height="80" viewBox="0 0 80 80" fill="none" xmlns="http://www.w3.org/2000/svg">
<circle cx="39.998" cy="40" r="40" fill="#FFF2D8"/>
<path fill-rule="evenodd" clip-rule="evenodd" d="M40.4141 50.7919L32.7841 54.8029C32.1548 55.1335 31.3924 55.0783 30.8173 54.6604C30.2422 54.2426 29.9541 53.5345 30.0741 52.8339L31.5311 44.3339L25.3561 38.3209C24.8469 37.8242 24.6641 37.0814 24.8844 36.4051C25.1048 35.7288 25.6901 35.2363 26.3941 35.1349L34.9241 33.8959L38.7391 26.1649C39.0538 25.5274 39.7031 25.1238 40.4141 25.1238C41.125 25.1238 41.7744 25.5274 42.0891 26.1649L45.9041 33.8949L54.4341 35.1339C55.1376 35.2363 55.722 35.7291 55.9416 36.4052C56.1613 37.0814 55.9781 37.8236 55.4691 38.3199L49.2971 44.3369L50.7541 52.8369C50.8741 53.5375 50.586 54.2456 50.0109 54.6634C49.4358 55.0813 48.6734 55.1365 48.0441 54.8059L40.4141 50.7919Z" fill="#FFBE3D"/>
</svg>
